<?xml version="1.0" encoding="UTF-8" ?>
<!DOCTYPE svg PUBLIC "-//W3C//DTD SVG 1.1//EN" "http://www.w3.org/Graphics/SVG/1.1/DTD/svg11.dtd">
<svg width="116pt" height="115pt" viewBox="0 0 116 115" version="1.1" xmlns="http://www.w3.org/2000/svg">
<path fill="#ffffff" d=" M 0.00 0.00 L 116.00 0.00 L 116.00 115.00 L 0.00 115.00 L 0.00 0.00 Z" />
<path fill="#deac63" d=" M 51.42 1.63 C 66.14 0.11 81.35 4.81 92.74 14.24 C 104.05 23.54 111.59 37.37 112.96 51.98 C 114.67 67.45 109.44 83.50 99.06 95.07 C 85.31 110.93 62.26 117.91 42.07 112.04 C 22.70 106.91 6.79 90.64 2.24 71.11 C 0.43 64.88 0.85 58.40 0.88 52.00 C 2.24 38.33 8.85 25.27 19.05 16.06 C 27.92 7.92 39.45 2.82 51.42 1.63 Z" />
<path fill="#ffffff" d=" M 33.63 16.71 C 46.42 9.24 62.87 8.53 76.30 14.73 C 87.93 19.81 97.13 29.97 101.37 41.89 C 106.03 54.57 104.67 69.24 97.99 80.94 C 91.15 93.10 78.69 102.04 64.87 104.19 C 52.01 106.52 38.23 103.02 27.98 94.93 C 23.17 90.89 18.24 86.30 16.01 80.31 C 19.68 80.40 23.36 80.42 27.04 80.33 C 29.55 76.72 31.78 72.88 34.88 69.73 C 40.94 69.75 47.01 69.56 53.07 69.79 C 54.71 72.66 53.36 76.93 53.87 80.32 C 66.35 80.45 78.83 80.39 91.30 80.34 C 91.55 77.10 91.51 73.85 91.36 70.60 C 82.35 70.48 73.34 70.51 64.34 70.61 C 64.39 67.17 64.38 63.74 64.31 60.31 C 70.80 60.02 77.32 60.61 83.79 59.99 C 83.72 57.00 83.73 54.00 83.82 51.01 C 77.33 50.40 70.81 50.96 64.32 50.71 C 64.43 47.32 64.10 43.91 64.66 40.55 C 73.33 40.67 82.02 40.50 90.70 40.66 C 91.49 37.26 91.25 33.77 90.71 30.35 C 77.26 30.51 63.81 30.39 50.36 30.41 C 42.74 41.65 34.32 52.31 26.60 63.47 C 22.50 68.44 18.97 73.83 14.97 78.87 C 10.84 71.76 9.50 63.24 9.82 55.10 C 10.55 39.34 19.88 24.39 33.63 16.71 Z" />
<path fill="#ffffff" d=" M 53.52 43.07 C 54.15 48.74 53.59 54.45 53.91 60.14 C 49.83 60.24 45.74 60.30 41.67 60.08 C 45.27 54.19 49.67 48.81 53.52 43.07 Z" />
</svg>
